<?xml version="1.0" encoding="utf-8"?>
<!-- Generator: Adobe Illustrator 26.0.0, SVG Export Plug-In . SVG Version: 6.00 Build 0)  -->
<svg version="1.1" id="Layer_1" xmlns="http://www.w3.org/2000/svg" xmlns:xlink="http://www.w3.org/1999/xlink" x="0px" y="0px"
	 viewBox="0 0 40 40" style="enable-background:new 0 0 40 40;" xml:space="preserve">
<style type="text/css">
	.st0{fill:#231F20;}
</style>
<g>
	<g>
		<path class="st0" d="M29.6,2.2c4.9,0,8.8,4,8.8,8.8v17.9c0,4.9-4,8.8-8.8,8.8H10.4c-4.9,0-8.8-4-8.8-8.8V11.1c0-4.9,4-8.8,8.8-8.8
			H29.6 M29.6,1.5H10.4c-5.3,0-9.6,4.3-9.6,9.6v17.9c0,5.3,4.3,9.6,9.6,9.6h19.2c5.3,0,9.6-4.3,9.6-9.6V11.1
			C39.1,5.8,34.8,1.5,29.6,1.5L29.6,1.5z"/>
	</g>
	<path class="st0" d="M16.4,29c0-0.3,0.1-0.6,0.2-0.8c0.1-0.4,0.3-0.7,0.4-1.1c0-0.1,0-0.1,0.1-0.1c0.2-0.2,0.3-0.4,0.5-0.7
		c0.1-0.1,0.2-0.3,0.3-0.4c0.1-0.1,0.2-0.1,0.4-0.1c0.5,0.2,1.1,0.1,1.5-0.1c0.3-0.2,0.6-0.3,0.9-0.5c0.5-0.3,1-0.5,1.6-0.4
		c0.1,0,0.2,0,0.2,0c0.5-0.2,1.1-0.4,1.6-0.6c0.6-0.2,1.2-0.5,1.7-0.9c0.3-0.3,0.6-0.6,1-0.7c0.4-0.1,0.6-0.4,0.9-0.7
		c0.1-0.2,0.2-0.3,0.2-0.5C28,21,28,21,28.2,21c0.3,0.1,0.7,0.2,1,0.4c0.1,0,0.1,0.1,0.1,0.1c0.2,0.4,0.5,0.9,0.6,1.4
		c0.1,0.5,0,0.9-0.4,1.2c-0.2,0.2-0.4,0.5-0.6,0.8c-0.1,0.1-0.1,0.2-0.1,0.3c-0.3,0.7-0.8,1.3-1.4,1.7c-0.5,0.3-0.9,0.8-1.4,1.1
		c-0.4,0.3-0.9,0.7-1.4,0.9c-0.1,0-0.2,0.1-0.2,0.1c-0.4,0.4-0.8,0.6-1.3,0.7c-0.3,0.1-0.6,0.2-0.9,0.3c-0.4,0.1-0.8,0.3-1.1,0.5
		c-0.2,0.2-0.5,0.2-0.8,0.2c-0.3,0-0.5,0.1-0.8,0.1c-0.4,0.1-0.7,0.1-1.1,0.3c-0.1,0.1-0.2,0.1-0.3,0c-0.2-0.1-0.4-0.2-0.6-0.3
		c-0.5-0.5-0.8-1-1-1.7C16.4,29.1,16.4,29,16.4,29z"/>
	<path class="st0" d="M13.6,27.4c-0.1,0.2-0.2,0.4-0.4,0.5c-0.9,0.8-2,1.4-3.3,1.7c-0.2,0-0.4,0.1-0.5,0.2c-0.7,0.4-1.3,0.8-1.9,1.2
		c-0.3,0.2-0.6,0.2-0.9,0c-0.2-0.2-0.5-0.3-0.8-0.3c-0.1,0-0.2-0.1-0.2-0.2c-0.2-0.2-0.3-0.5-0.6-0.7c-0.1-0.1-0.3-0.2-0.4-0.3
		c-0.1-0.1,0-0.3,0-0.5c0-0.3-0.1-0.5-0.1-0.8c0-0.2-0.1-0.3-0.1-0.5c0-0.2,0-0.4,0.1-0.6c0.2-0.2,0.3-0.5,0.3-0.8
		c0.1-0.3,0.2-0.6,0.4-0.9c0.4-0.5,0.7-0.9,1.1-1.3c0.4-0.4,0.8-0.8,1.1-1.3c0.3-0.3,0.6-0.7,0.9-1c0.3-0.3,0.7-0.5,1.1-0.7
		c0.2-0.1,0.3,0,0.4,0.2C10,21.7,10,21.9,10,22c0,0.3,0,0.6,0.3,0.8c0.1,0.1,0.1,0.2,0.1,0.3c0,0.3,0,0.6-0.1,0.9
		c-0.1,0.3-0.1,0.6,0.1,0.9c0.1,0.2,0.2,0.4,0.3,0.5c0.3,0.5,0.6,0.7,1.3,0.6c0.1,0,0.3,0,0.4,0c0.2,0.1,0.3,0.1,0.2,0.3
		c0,0.1-0.1,0.2-0.2,0.2c0,0.1-0.1,0.1-0.1,0.2c-0.1,0.3,0,0.4,0.2,0.4c0.2,0,0.5,0.1,0.7,0.1C13.3,27.3,13.5,27.3,13.6,27.4z"/>
	<path class="st0" d="M35.5,14.9c-0.2,0.6-0.5,1-0.9,1.2c-0.4,0.2-0.8,0.3-1.2,0.4c-0.6,0.1-1.1,0.2-1.7,0.4c-0.1,0-0.2,0-0.2,0
		c-0.4,0-0.8-0.1-1.2-0.3c0,0,0-0.1,0.1-0.1c0.7-0.4,1.4-0.7,2.1-0.9c0.2-0.1,0.3,0,0.4,0.1c0.2,0.2,0.4,0.2,0.7,0.1
		c0.4-0.2,0.7-0.4,1-0.6C34.8,15.1,35.1,15,35.5,14.9z"/>
	<path class="st0" d="M38.5,11.8C38.5,11.8,38.5,11.8,38.5,11.8l0-0.5c0-1.2-0.2-2.4-0.7-3.5c-0.5,0.2-1,0.5-1.5,0.7
		c-2.8,1.5-5.4,3.4-8.1,5.2c-1.2,0.8-2.2,1.7-3.3,2.6c-1,0.8-2,1.5-3.1,2c-0.1,0.1-0.2,0.1-0.3,0.1c-0.3,0-0.5,0.1-0.8,0.2
		c-0.2,0.1-0.3,0.1-0.5,0.2c-0.5,0.1-0.8,0-0.9-0.5c-0.1-0.3-0.2-0.5-0.3-0.8c-0.3-1-0.6-2-1-3c-0.3-0.8-0.7-1.5-1.2-2.2
		c-0.3-0.4-0.6-0.4-1-0.1c-0.1,0.1-0.3,0.2-0.4,0.3c-0.2,0.1-0.3,0.1-0.5,0.1c-0.2-0.1-0.2-0.1-0.1-0.3c0.1-0.2,0.3-0.3,0.5-0.4
		c0.2-0.1,0.4-0.1,0.6-0.2c0-0.1-0.2-0.2-0.2-0.3c-0.2-0.2-0.5-0.4-0.8-0.6c-0.7-0.4-1.6-0.7-2.4-0.7c-0.4,0-0.9-0.1-1.3-0.1
		c-0.4,0.1-0.8,0.2-1,0.6c-0.2,0.3-0.3,0.6-0.4,0.9c0,0.1,0,0.2,0,0.3c0.1,0.2,0.1,0.3,0.1,0.5c0.1,1.4-0.4,2.7-1.2,3.8
		c-0.2,0.3-0.3,0.5-0.3,0.8c0,0.1,0,0.2,0,0.3C8.2,17.6,8,18,7.9,18.3c-0.2,0.3-0.3,0.7-0.4,1c-0.1,0.4-0.1,0.9,0,1.3
		c0.1,0.2,0.3,0.4,0.5,0.5c0.1,0,0.3,0,0.4,0c0.4-0.1,0.7-0.2,1.1-0.2c0.2,0,0.4-0.2,0.5-0.4c0.1-0.2,0.1-0.3,0.1-0.5
		c0-0.2,0-0.3,0-0.5c0-0.4,0.2-0.7,0.5-0.8c0.1-0.1,0.2-0.1,0.3-0.2c0.1-0.1,0.1-0.2,0-0.3c-0.2-0.2-0.2-0.4-0.1-0.6
		c0.1-0.2,0.2-0.4,0.3-0.5c0.2-0.1,0.4-0.2,0.6-0.4c0.2-0.1,0.4-0.2,0.5-0.3c0.2-0.2,0.2-0.2,0-0.4c-0.3-0.3-0.3-0.4-0.1-0.8
		c0.1-0.2,0.2-0.3,0.3-0.4c0.4-0.4,0.9-0.6,1.4-0.8c0.3-0.1,0.6,0,0.8,0.3c0.1,0.2,0.1,0.5,0,0.7c-0.1,0.2-0.3,0.4-0.4,0.5
		c-0.1,0.1-0.1,0.2,0,0.3c0.2,0.1,0.2,0.3,0.2,0.4c-0.1,0.4-0.2,0.6-0.5,0.9c-0.2,0.1-0.2,0.3-0.1,0.4c0.2,0.2,0.1,0.4,0.1,0.6
		c-0.1,0.4-0.2,0.9-0.2,1.3c0,0.3-0.1,0.5-0.3,0.7c-0.1,0.1-0.2,0.2-0.3,0.3c0.3,0,0.6-0.1,0.8-0.1c0.2,0,0.4,0,0.6,0
		c0.3,0.1,0.4,0.2,0.2,0.5c-0.1,0.2-0.2,0.3-0.4,0.4c-0.1,0.1-0.3,0.3-0.3,0.5c0,0.3-0.1,0.6-0.1,1c0,0.3,0.1,0.5,0.2,0.8
		c0.1,0.2,0.2,0.2,0.4,0.2c0.3,0,0.5-0.1,0.7-0.2c0.3-0.1,0.6-0.3,0.9-0.4c0.1,0,0.2-0.1,0.3-0.1c0.2,0,0.3,0.1,0.3,0.3
		c0,0.3-0.1,0.5-0.3,0.7c-0.2,0.2-0.2,0.4-0.1,0.6c0.1,0.1,0.1,0.3,0.1,0.4c0,0.2,0.1,0.2,0.2,0.2c0.3,0,0.5-0.1,0.7-0.3
		c0.2-0.2,0.4-0.4,0.6-0.6c0.2-0.2,0.5-0.3,0.8-0.3c0.1,0,0.2,0,0.3-0.1c0.6-0.3,1.2-0.5,1.8-0.8c0.7-0.3,1.4-0.7,2-1.2
		c0.4-0.3,0.7-0.7,0.8-1.2c0.1-0.4,0.4-0.6,0.8-0.7c0.8-0.1,1.5-0.1,2.3-0.1c0.9,0,1.9,0.1,2.8,0c0.7,0,1.4-0.1,2-0.4
		c0.7-0.3,1.3-0.8,1.7-1.4c0.1-0.2,0.1-0.3-0.1-0.3c-0.7,0-1.4-0.1-2.2-0.2c-0.6-0.1-1.2,0-1.7,0.2c-0.1,0.1-0.3,0.1-0.4,0.2
		c0.2,0.2,0.4,0.2,0.6,0.2c0.2,0.1,0.5,0.1,0.7,0.2c0.2,0.1,0.2,0.2,0.1,0.4c0,0.1-0.1,0.1-0.2,0.2c-0.3,0.1-0.6,0.3-1,0.3
		c-0.2,0-0.4,0.1-0.6,0.1c-0.7,0.1-1.4,0.2-2.2,0.2c-0.3,0-0.6-0.1-0.9-0.2c-0.2-0.1-0.2-0.1-0.1-0.3c0.1-0.2,0.3-0.4,0.5-0.5
		c0.2-0.1,0.5-0.1,0.7-0.2c0.2-0.1,0.4-0.1,0.5-0.2c0.2-0.1,0.1-0.2,0-0.3c-0.1-0.1-0.2-0.1-0.3-0.2c-0.2-0.1-0.2-0.2,0-0.4
		c0.2-0.2,0.5-0.2,0.7-0.4c0.1-0.1,0.3-0.2,0.3-0.3c0.1-0.3,0.3-0.6,0.6-0.8c0.2-0.2,0.5-0.3,0.7-0.5c0.2-0.2,0.5-0.3,0.6-0.6
		c0.1-0.3,0.3-0.4,0.6-0.6c0.2-0.2,0.4-0.3,0.6-0.5c0.6-0.5,1.2-0.9,1.8-1.3c0.4-0.2,0.8-0.4,1.1-0.6c0.2-0.1,0.4-0.2,0.6-0.1
		c0.2,0,0.2,0.1,0.2,0.3c-0.1,0.3-0.3,0.5-0.5,0.7c-0.3,0.2-0.5,0.4-0.8,0.6c-0.2,0.1-0.4,0.3-0.5,0.4c-0.1,0.1-0.2,0.2-0.1,0.3
		c0.1,0.2,0.1,0.4,0.2,0.6c0.1,0.3,0.2,0.3,0.4,0.2c0.7-0.4,1.5-0.6,2.3-0.6c0.2,0,0.3-0.1,0.4-0.2c0.3-0.3,0.5-0.6,0.8-0.8
		c0.5-0.4,1-0.9,1.5-1.4C38.3,12,38.4,11.9,38.5,11.8C38.5,11.8,38.5,11.8,38.5,11.8z M34.1,10.4c0.4-0.3,0.9-0.6,1.5-0.6
		C35.2,10.1,34.7,10.3,34.1,10.4z M34.6,11c0.5-0.5,1-0.7,1.7-0.7C35.8,10.6,35.3,10.9,34.6,11z"/>
</g>
</svg>
